<?xml version="1.0" encoding="UTF-8"?>
<svg xmlns="http://www.w3.org/2000/svg" xmlns:xlink="http://www.w3.org/1999/xlink" width="50pt" height="50pt" viewBox="0 0 50 50" version="1.1">
<g id="surface1">
<path style=" stroke:none;fill-rule:nonzero;fill:rgb(97%,98%,98%);fill-opacity:1;" d="M 37.496094 0.0117188 L 31.015625 0 C 23.730469 0 19.023438 4.828125 19.023438 12.304688 L 19.023438 17.980469 L 12.503906 17.980469 C 11.941406 17.980469 11.484375 18.433594 11.484375 19 L 11.484375 27.21875 C 11.484375 27.78125 11.941406 28.238281 12.503906 28.238281 L 19.023438 28.238281 L 19.023438 48.980469 C 19.023438 49.542969 19.476562 50 20.042969 50 L 28.546875 50 C 29.109375 50 29.566406 49.542969 29.566406 48.980469 L 29.566406 28.238281 L 37.191406 28.238281 C 37.753906 28.238281 38.207031 27.78125 38.207031 27.21875 L 38.210938 19 C 38.210938 18.726562 38.105469 18.46875 37.914062 18.277344 C 37.722656 18.085938 37.460938 17.980469 37.191406 17.980469 L 29.566406 17.980469 L 29.566406 13.167969 C 29.566406 10.859375 30.117188 9.683594 33.128906 9.683594 L 37.496094 9.683594 C 38.058594 9.683594 38.515625 9.226562 38.515625 8.664062 L 38.515625 1.03125 C 38.515625 0.46875 38.058594 0.0117188 37.496094 0.0117188 Z M 37.496094 0.0117188 "/>
</g>
</svg>
